<svg width="126" height="51" viewBox="0 0 126 51" fill="none" xmlns="http://www.w3.org/2000/svg">
<g id="text">
<path id="Vector" d="M32.1605 28.8324C32.1605 30.0003 31.8218 30.8995 31.1446 31.5299C30.4671 32.1606 29.498 32.4759 28.2367 32.4759H6.37596V29.9535H20.6696C21.7907 29.9535 22.3512 29.4396 22.3512 28.4121C22.3512 25.2357 21.7907 22.8417 20.6696 21.2303C19.5485 19.6187 18.0539 18.8129 16.1853 18.8129C14.7373 18.8129 13.4644 19.2566 12.3667 20.1442C11.2689 21.0084 10.4047 22.2812 9.77435 23.9628C9.1437 25.621 8.82837 27.6297 8.82837 29.9885C8.82837 34.5196 9.87929 37.9293 11.9814 40.2181C14.1066 42.4838 16.9209 43.6165 20.4242 43.6165C22.5029 43.6165 24.3247 43.1844 25.8895 42.3202C27.4543 41.456 28.6454 40.2415 29.463 38.6767C29.8367 38.2565 30.1402 37.9645 30.3738 37.801C30.6073 37.6374 30.8527 37.5556 31.1096 37.5556C31.4599 37.5556 31.705 37.7192 31.8452 38.0461C32.0088 38.3498 32.0903 38.7235 32.0903 39.1672C31.997 41.1759 31.2963 43.0208 29.9885 44.7024C28.7038 46.384 26.9522 47.7271 24.7334 48.7312C22.5379 49.7121 20.0155 50.2026 17.1663 50.2026C13.8265 50.2026 10.8602 49.5139 8.26793 48.1358C5.67535 46.7577 3.64347 44.831 2.17206 42.3552C0.724018 39.8562 0 36.9368 0 33.597C0 30.0469 0.700665 26.9173 2.10199 24.2079C3.5033 21.4988 5.51177 19.3736 8.12775 17.8319C10.7435 16.2905 13.8615 15.5197 17.4816 15.5197C20.5644 15.5197 23.192 16.092 25.364 17.2365C27.5595 18.3808 29.2411 19.9574 30.4087 21.9659C31.5767 23.9512 32.1605 26.2401 32.1605 28.8324ZM47.706 31.5651L50.3333 33.0013L43.2217 42.5656C42.5443 43.4997 42.2758 44.2821 42.4159 44.9128C42.5561 45.5432 43.0931 45.9987 44.0275 46.279L45.1837 46.5591C45.6039 46.7227 45.9077 46.9097 46.0944 47.1198C46.2811 47.33 46.3748 47.5985 46.3748 47.9256C46.3748 48.3459 46.2112 48.6846 45.8843 48.9416C45.5805 49.1985 45.1484 49.3269 44.588 49.3269H35.024C34.4867 49.3269 34.0546 49.1985 33.7277 48.9416C33.4239 48.6846 33.2722 48.3459 33.2722 47.9256C33.2722 47.5985 33.3656 47.3184 33.5526 47.0848C33.7627 46.8513 34.1364 46.6175 34.6737 46.384C35.3743 46.1273 35.9816 45.812 36.4952 45.4383C37.0325 45.0645 37.5813 44.5622 38.1418 43.9318C38.7259 43.3012 39.4147 42.472 40.2089 41.4444L47.706 31.5651ZM49.3876 21.7558L55.9737 30.8995L56.3942 31.3547L65.4677 43.5113C66.1918 44.4923 66.7756 45.1813 67.2195 45.5784C67.6632 45.9753 68.1771 46.2791 68.7609 46.4892C69.2046 46.6993 69.5199 46.9213 69.7069 47.1548C69.8936 47.3649 69.987 47.6337 69.987 47.9606C69.987 48.3809 69.8237 48.7196 69.4965 48.9765C69.1696 49.2335 68.726 49.3619 68.1653 49.3619H52.9609C52.377 49.3619 51.9215 49.2335 51.5946 48.9765C51.2909 48.7196 51.1391 48.3809 51.1391 47.9606C51.1391 47.6103 51.2209 47.33 51.3845 47.1198C51.5478 46.9097 51.8166 46.7577 52.1903 46.6643L53.4863 46.384C54.2338 46.2207 54.6543 45.9519 54.7476 45.5784C54.841 45.1813 54.619 44.6209 54.082 43.8969L47.1453 34.2976L46.76 33.8071L38.2819 21.9659C37.6513 21.1017 37.0909 20.4945 36.6004 20.1442C36.1099 19.7939 35.5495 19.5253 34.9188 19.3384C34.4049 19.1516 34.0546 18.9415 33.8679 18.708C33.7043 18.4742 33.6225 18.1707 33.6225 17.797C33.6225 17.3299 33.7743 16.9796 34.078 16.746C34.4049 16.4891 34.8488 16.3605 35.4093 16.3605H50.2983C50.859 16.3605 51.2909 16.4773 51.5946 16.7111C51.9215 16.9446 52.0851 17.2949 52.0851 17.762C52.0851 18.0655 52.0152 18.3224 51.875 18.5326C51.7348 18.7429 51.4894 18.9297 51.1391 19.0932L49.9131 19.4436C49.2124 19.6537 48.8269 19.934 48.7569 20.2843C48.7101 20.6346 48.9205 21.1251 49.3876 21.7558ZM55.1329 33.8071L52.5054 32.3707L59.4071 23.157C60.1077 22.2229 60.388 21.4286 60.2479 20.7748C60.1311 20.0976 59.5822 19.6303 58.6013 19.3736L57.4452 19.0932C57.048 18.9531 56.7445 18.7779 56.5344 18.5678C56.3474 18.3343 56.2541 18.0539 56.2541 17.727C56.2541 17.2831 56.4176 16.9446 56.7445 16.7111C57.0714 16.4773 57.5035 16.3605 58.0408 16.3605H67.6398C68.1771 16.3605 68.5973 16.4891 68.9011 16.746C69.228 16.9796 69.3916 17.3183 69.3916 17.762C69.3916 18.0889 69.2864 18.3692 69.0763 18.6028C68.8893 18.8129 68.5274 19.0464 67.9901 19.3034C66.9392 19.6771 66.0516 20.2144 65.3276 20.915C64.6035 21.6156 63.646 22.7249 62.4549 24.2432L55.1329 33.8071ZM84.799 17.8319V44.0018C84.799 44.7024 84.8924 45.2163 85.0793 45.5432C85.2895 45.8704 85.6048 46.0921 86.0251 46.2088L87.3916 46.5591C87.8119 46.7227 88.1272 46.9213 88.3373 47.1548C88.5474 47.3884 88.6526 47.6687 88.6526 47.9956C88.6526 48.4161 88.5009 48.7546 88.1971 49.0115C87.8936 49.2451 87.4381 49.3619 86.8309 49.3619H72.9927C72.3855 49.3619 71.9303 49.2451 71.6265 49.0115C71.3462 48.7546 71.2062 48.4161 71.2062 47.9956C71.2062 47.6687 71.2996 47.3884 71.4863 47.1548C71.6965 46.9213 72.0118 46.7345 72.4323 46.5944L73.8335 46.2088C74.2541 46.0689 74.5576 45.8469 74.7445 45.5432C74.9547 45.2163 75.0599 44.7024 75.0599 44.0018V23.5423C75.0599 22.9819 74.9663 22.5847 74.7795 22.3512C74.6159 22.0943 74.3474 21.9309 73.9737 21.8607L72.082 21.7208C71.6849 21.6272 71.393 21.4873 71.2062 21.3003C71.0427 21.0901 70.9609 20.8332 70.9609 20.5295C70.9609 20.1791 71.0661 19.8872 71.2762 19.6537C71.4863 19.4202 71.8834 19.1982 72.4673 18.9881L79.2288 16.5709C80.1162 16.2671 80.8052 16.0454 81.2957 15.9053C81.8096 15.7651 82.2532 15.6949 82.627 15.6949C83.351 15.6949 83.8883 15.8934 84.2386 16.2905C84.6123 16.6877 84.799 17.2013 84.799 17.8319ZM79.1936 10.405C77.3487 10.405 75.8654 9.92612 74.7445 8.96856C73.6468 8.01101 73.0979 6.74997 73.0979 5.1849C73.0979 3.62009 73.6468 2.37061 74.7445 1.43646C75.8654 0.478909 77.3487 0 79.1936 0C81.0621 0 82.557 0.478909 83.6779 1.43646C84.799 2.39402 85.3595 3.6435 85.3595 5.1849C85.3595 6.74997 84.799 8.01101 83.6779 8.96856C82.557 9.92612 81.0621 10.405 79.1936 10.405ZM111.986 44.9828V44.2821L111.321 44.1769V23.157C111.321 21.4988 110.912 20.226 110.095 19.3384C109.277 18.451 108.109 18.0071 106.591 18.0071C105.213 18.0071 104.151 18.3108 103.403 18.9181C102.656 19.5019 102.282 20.2144 102.282 21.0552V24.138C102.282 25.5392 101.815 26.6254 100.881 27.3962C99.97 28.1433 98.6737 28.5171 96.9921 28.5171C95.5909 28.5171 94.5166 28.1786 93.7691 27.5011C93.0451 26.8239 92.6833 25.8898 92.6833 24.6984C92.6833 23.2504 93.2787 21.8257 94.4698 20.4245C95.6609 19.023 97.4242 17.8669 99.7599 16.9562C102.095 16.0454 104.956 15.5899 108.343 15.5899C112.617 15.5899 115.793 16.4541 117.872 18.1822C119.951 19.9106 120.99 22.2578 120.99 25.2241V43.4064C120.99 44.0836 121.119 44.5856 121.375 44.9128C121.656 45.2397 122.041 45.4033 122.531 45.4033C123.045 45.4033 123.431 45.2865 123.687 45.0527C123.944 44.796 124.166 44.5391 124.353 44.2821C124.47 44.1186 124.587 43.9902 124.703 43.8969C124.844 43.7798 125.007 43.7214 125.194 43.7214C125.474 43.7214 125.673 43.8266 125.79 44.0368C125.93 44.2238 126 44.4807 126 44.8076C126 45.5784 125.731 46.384 125.194 47.2248C124.657 48.0424 123.851 48.743 122.777 49.3269C121.702 49.9107 120.359 50.2026 118.748 50.2026C116.669 50.2026 115.023 49.7356 113.808 48.8014C112.594 47.8673 111.986 46.5944 111.986 44.9828ZM91.1766 42.0751C91.1766 39.179 92.4613 36.8434 95.0305 35.0685C97.5994 33.2933 101.219 32.4059 105.891 32.4059C107.409 32.4059 108.763 32.5343 109.955 32.7912C111.146 33.0482 112.185 33.3869 113.073 33.8071L112.372 35.9442C111.554 35.5705 110.737 35.2786 109.92 35.0685C109.102 34.8581 108.203 34.7531 107.222 34.7531C105.307 34.7531 103.8 35.2552 102.703 36.2596C101.628 37.2637 101.091 38.6533 101.091 40.4285C101.091 42.2034 101.558 43.5697 102.492 44.5273C103.427 45.4617 104.629 45.9287 106.101 45.9287C107.339 45.9287 108.53 45.6484 109.674 45.0879C110.819 44.5038 111.776 43.7099 112.547 42.7055L113.283 44.5975C112.021 46.3724 110.317 47.7505 108.168 48.7312C106.042 49.7121 103.777 50.2026 101.371 50.2026C98.3586 50.2026 95.9062 49.4552 94.0143 47.9606C92.1226 46.4658 91.1766 44.5038 91.1766 42.0751Z" fill="url(#paint0_linear_0_73)"/>
</g>
<defs>
<linearGradient id="paint0_linear_0_73" x1="12.7683" y1="50.2026" x2="117.021" y2="4.73793" gradientUnits="userSpaceOnUse">
<stop stop-color="#6E4A3B"/>
<stop offset="1" stop-color="#785445"/>
</linearGradient>
</defs>
</svg>
